<?xml version="1.0" encoding="utf-8"?>
<!--Generator: Adobe Illustrator 24.2.1, SVG Export Plug-In . SVG Version: 6.00 Build 0)-->
<svg version="1.1" id="Layer_1" xmlns="http://www.w3.org/2000/svg" xmlns:xlink="http://www.w3.org/1999/xlink" x="0px" y="0px" viewBox="0 0 612 792" style="enable-background:new 0 0 612 792" xml:space="preserve">
    <style type="text/css">
        .st0{fill:#FFFFFF;} .st1{display:none;} .st2{fill:#B8242C;}
    </style>
    <g>
        <path class="st0" d="M579.4,383c0,9,0,17.9,0,26.9c-1.4,11.2-2.2,22.6-4.1,33.7c-10.4,58.1-36.2,108.4-79.2,148.9
		c-70.7,66.7-154.5,89.8-249.4,70.4c-54.6-11.2-100.9-38.6-139.1-79.1c-38.2-40.5-61.9-88.4-70.7-143.5c-1.6-10.1-2.5-20.2-3.7-30.4
		c0-9,0-17.9,0-26.9c0.7-6.6,1.2-13.3,2-19.9c8.7-65.9,36.6-122.3,85.8-166.9c69-62.6,150.2-84.6,241.6-66.7
		c55.1,10.8,101.9,37.6,140.7,78c39.1,40.8,63.4,89.3,72.4,145.2C577.3,362.7,578.2,372.8,579.4,383z M306.6,159.1
		c-127.2-0.9-235,101.8-237.8,232.2c-2.8,132,103,242.9,237.6,242.6c133.9-0.2,235.1-108,237.3-232.8
		C546.1,265.2,435.5,158.4,306.6,159.1z"/>
        <path class="st1" d="M579.4,383c-1.2-10.1-2.1-20.3-3.7-30.3c-9-55.9-33.3-104.4-72.4-145.2c-38.8-40.4-85.6-67.3-140.7-78
		c-91.4-17.9-172.6,4.1-241.6,66.7C71.8,240.7,43.9,297.2,35.2,363c-0.9,6.6-1.4,13.3-2,19.9c0-86.7,0-173.4,0-260.2
		c182.1,0,364.2,0,546.2,0C579.4,209.6,579.4,296.3,579.4,383z"/>
        <path class="st1" d="M33.2,409.8c1.2,10.1,2.1,20.3,3.7,30.4c8.8,55.1,32.6,103,70.7,143.5c38.2,40.5,84.5,67.9,139.1,79.1
		c94.9,19.5,178.8-3.7,249.4-70.4c42.9-40.5,68.8-90.8,79.2-148.9c2-11.1,2.8-22.4,4.1-33.7c0,86.7,0,173.4,0,260.2
		c-182.1,0-364.2,0-546.2,0C33.2,583.2,33.2,496.5,33.2,409.8z"/>
        <path class="st2" d="M306.6,159.1c128.9-0.6,239.5,106.1,237.1,242c-2.2,124.8-103.4,232.6-237.3,232.8
		C171.9,634.2,66,523.3,68.9,391.3C71.7,260.9,179.5,158.2,306.6,159.1z M305.8,605.9c112.6,0.8,209.3-90.2,210-208.3
		c0.6-116-93.3-210.7-208-210.7c-116.6,0-211,93.4-211,208.8C96.6,511.7,190.3,605.9,305.8,605.9z"/>
        <path class="st0" d="M305.8,605.9c-115.5,0-209.2-94.1-209.1-210.2c0-115.4,94.5-208.8,211-208.8c114.7,0,208.7,94.7,208,210.7
		C515.1,515.6,418.3,606.7,305.8,605.9z M342,372.3c0.5,0.2,0.9,0.4,1.4,0.5c0,1.7,0,3.5,0,5.2c0,21.4,0,42.9,0,64.3
		c0,13.9,0,13.7,13.7,13.9c4.6,0.1,5.6-1.6,5.6-5.8c-0.2-22.9-0.1-45.8-0.1-68.6c0-13.4-0.1-26.9,0.1-40.3c0-3.5-1-5-4.7-4.8
		c-3.5,0.2-7,0.2-10.5,0c-2.9-0.2-4.6,1-6.1,3.5c-6,10-12.2,19.9-18.3,29.8c-0.9,1.4-1.9,2.6-3.2,4.5c-1.4-2-2.4-3.2-3.2-4.5
		c-4.7-7.4-10-14.6-13.8-22.5c-4.3-8.9-10.3-12.1-20-11c-4.9,0.5-6.1,1.8-6,6.5c0.2,33.1,0.1,66.2,0.1,99.3c0,14.1,0,13.9,14.2,13.9
		c4,0,5.1-1.3,5.1-5.3c-0.2-24.5-0.1-49-0.1-73.4c0-1.6,0.2-3.2,0.3-4.8c2.1,1.2,3.1,2.6,4,4.1c4.8,7.8,9.5,15.6,14.2,23.3
		c3.4,5.5,7.1,5.6,10.4,0.1c4.9-8.1,9.8-16.1,14.7-24.2C340.3,374.8,341.2,373.5,342,372.3z M457.2,456.1c-1.3-5.1-2.5-9.4-3.6-13.7
		c-9-33.6-18.1-67.2-27-100.9c-1-3.9-2.7-5.2-6.6-4.9c-4.3,0.3-8.6,0.3-12.9,0c-3.7-0.3-5.2,1.2-6.2,4.8
		c-9.7,36.4-19.5,72.8-29.3,109.2c-0.4,1.6-0.7,3.3-1.2,5.5c5.8,0,10.9-0.1,16,0.1c2.8,0.1,4-1,4.6-3.6c0.9-4.5,2.2-9,3-13.6
		c0.5-2.5,1.7-3.4,4.2-3.4c10.2,0.1,20.5,0.1,30.7,0c2.6,0,3.7,1,4.2,3.4c1,4.7,2,9.4,3.5,13.9c0.4,1.3,2.1,3,3.3,3
		C445.3,456.3,450.8,456.1,457.2,456.1z M210,374.1c4.8,0,9.1-0.1,13.4,0c3.7,0.1,5-1.4,4.9-5.2c-0.3-16.3-11.2-28.6-29.2-31.5
		c-22.5-3.5-44.1,8.5-43.6,36c0.3,15.7,0,31.3,0.1,47c0,8,1.9,15.5,6.8,22c9.7,12.9,30.3,17.3,46.7,10.1
		c13.2-5.8,21.5-20.6,18.3-33.4c-5.6,0-11.4,0-17.4,0c-0.1,1.4-0.2,2.6-0.3,3.9c-1.3,11.6-7.8,17.2-19.7,16.7
		c-9.6-0.4-15.7-7.6-15.7-18.6c0-16.6,0-33.3,0-49.9c0-10.5,6.2-17.6,15.8-18.2c11.2-0.6,18,4.9,19.4,15.9
		C209.6,370.5,209.8,372.1,210,374.1z M242.6,396.3c0,15.2,0,30.4,0,45.6c0,14.4,0,14.3,14.3,14.2c3.8,0,5-1.3,4.9-5
		c-0.1-36.5-0.1-73,0-109.5c0-3.6-0.8-5.4-4.8-5.1c-3.2,0.3-6.4,0.2-9.6,0c-3.7-0.2-5,1.1-4.9,4.9
		C242.7,359.9,242.6,378.1,242.6,396.3z"/>
        <path class="st2" d="M342,372.3c-0.8,1.2-1.7,2.5-2.5,3.7c-4.9,8.1-9.8,16.1-14.7,24.2c-3.3,5.4-7,5.4-10.4-0.1
		c-4.8-7.8-9.5-15.6-14.2-23.3c-0.9-1.5-1.9-2.9-4-4.1c-0.1,1.6-0.3,3.2-0.3,4.8c0,24.5-0.1,49,0.1,73.4c0,3.9-1.1,5.3-5.1,5.3
		c-14.2,0-14.2,0.2-14.2-13.9c0-33.1,0.1-66.2-0.1-99.3c0-4.6,1.1-5.9,6-6.5c9.7-1.1,15.7,2.1,20,11c3.8,7.9,9.1,15,13.8,22.5
		c0.8,1.3,1.8,2.5,3.2,4.5c1.3-1.8,2.4-3.1,3.2-4.5c6.1-9.9,12.3-19.8,18.3-29.8c1.5-2.5,3.2-3.7,6.1-3.5c3.5,0.2,7,0.2,10.5,0
		c3.6-0.2,4.7,1.3,4.7,4.8c-0.1,13.4-0.1,26.9-0.1,40.3c0,22.9-0.1,45.8,0.1,68.6c0,4.2-1,5.9-5.6,5.8c-13.7-0.2-13.7,0-13.7-13.9
		c0-21.4,0-42.9,0-64.3c0-1.7,0-3.5,0-5.2C342.9,372.6,342.5,372.5,342,372.3z"/>
        <path class="st2" d="M457.2,456.1c-6.5,0-11.9,0.2-17.3-0.1c-1.2-0.1-2.9-1.8-3.3-3c-1.4-4.6-2.4-9.3-3.5-13.9
		c-0.5-2.4-1.6-3.4-4.2-3.4c-10.2,0.1-20.5,0.1-30.7,0c-2.6,0-3.7,0.9-4.2,3.4c-0.9,4.5-2.1,9-3,13.6c-0.5,2.6-1.8,3.7-4.6,3.6
		c-5.1-0.2-10.2-0.1-16-0.1c0.5-2.3,0.8-3.9,1.2-5.5c9.8-36.4,19.6-72.7,29.3-109.2c1-3.6,2.5-5,6.2-4.8c4.3,0.3,8.6,0.3,12.9,0
		c3.9-0.3,5.6,1.1,6.6,4.9c8.9,33.6,17.9,67.2,27,100.9C454.8,446.7,455.9,451,457.2,456.1z M428.7,420.2
		c-4.9-19.7-9.7-38.8-14.5-57.8c-0.5,0.1-1.1,0.1-1.6,0.2c-4.6,19.1-9.3,38.1-14,57.7C408.8,420.2,418.1,420.2,428.7,420.2z"/>
        <path class="st2" d="M210,374.1c-0.2-2-0.3-3.5-0.5-5.1c-1.5-11-8.2-16.5-19.4-15.9c-9.5,0.5-15.8,7.6-15.8,18.2
		c0,16.6,0,33.3,0,49.9c0,11,6,18.2,15.7,18.6c11.8,0.5,18.4-5,19.7-16.7c0.1-1.3,0.2-2.5,0.3-3.9c6,0,11.7,0,17.4,0
		c3.3,12.8-5.1,27.6-18.3,33.4c-16.4,7.2-37,2.8-46.7-10.1c-4.9-6.5-6.8-14-6.8-22c0-15.7,0.2-31.4-0.1-47
		c-0.5-27.5,21.1-39.6,43.6-36c18,2.8,28.9,15.2,29.2,31.5c0.1,3.7-1.2,5.3-4.9,5.2C219.1,374,214.8,374.1,210,374.1z"/>
        <path class="st2" d="M242.6,396.3c0-18.2,0.1-36.5-0.1-54.7c0-3.9,1.2-5.2,4.9-4.9c3.2,0.2,6.4,0.3,9.6,0c4-0.3,4.8,1.5,4.8,5.1
		c-0.1,36.5-0.1,73,0,109.5c0,3.7-1.1,5-4.9,5c-14.3,0.1-14.3,0.2-14.3-14.2C242.6,426.8,242.6,411.5,242.6,396.3z"/>
        <path class="st0" d="M428.7,420.2c-10.5,0-19.9,0-30.1,0c4.8-19.5,9.4-38.6,14-57.7c0.5-0.1,1.1-0.1,1.6-0.2
		C418.9,381.4,423.7,400.5,428.7,420.2z"/>
    </g>
</svg>
